<svg width="200" height="200" viewBox="0 0 200 200" fill="none" xmlns="http://www.w3.org/2000/svg">
<path d="M178.061 81.2653C180.643 83.0095 183.333 85.7432 183.333 89.5837V102.084C183.333 105.924 180.643 108.658 178.061 110.402C176.596 111.392 174.857 112.281 172.917 113.077V116.667C172.917 117.527 172.782 118.332 172.543 119.082C173.955 120.644 175 122.607 175 125V137.5C175 141.341 172.309 144.074 169.727 145.819C167 147.661 163.328 149.156 159.164 150.346C150.78 152.741 139.439 154.167 127.083 154.167C114.728 154.167 103.387 152.741 95.0027 150.346C90.8389 149.156 87.1662 147.661 84.4391 145.819C81.8573 144.074 79.1666 141.341 79.1666 137.5V125C79.1666 124.14 79.3016 123.336 79.54 122.585C78.1279 121.023 77.0833 119.06 77.0833 116.667V104.167C77.0833 100.327 79.7739 97.5928 82.3558 95.8487C83.821 94.8589 85.5594 93.9693 87.5 93.1734V89.5837C87.5 85.7432 90.1906 83.0095 92.7725 81.2653C95.4996 79.423 99.1723 77.9282 103.336 76.7385C111.72 74.3428 123.061 72.917 135.417 72.917C147.772 72.917 159.113 74.3428 167.497 76.7385C171.661 77.9282 175.334 79.423 178.061 81.2653Z" fill="#021024" fill-opacity="0.1"/>
<path d="M166.667 120.833C166.667 113.929 147.079 108.333 122.917 108.333C98.7542 108.333 79.1667 113.929 79.1667 120.833V133.333C79.1667 140.237 98.7542 145.833 122.917 145.833C147.079 145.833 166.667 140.237 166.667 133.333V120.833Z" fill="#D18A00"/>
<path fill-rule="evenodd" clip-rule="evenodd" d="M165.561 112.515C168.143 114.259 170.833 116.993 170.833 120.834V133.334C170.833 137.174 168.143 139.908 165.561 141.652C162.834 143.494 159.161 144.989 154.997 146.179C146.613 148.575 135.272 150 122.917 150C110.561 150 99.2204 148.575 90.836 146.179C86.6723 144.989 82.9996 143.494 80.2725 141.652C77.6906 139.908 75 137.174 75 133.334V120.834C75 116.993 77.6906 114.259 80.2725 112.515C82.9996 110.673 86.6723 109.178 90.836 107.988C99.2204 105.593 110.561 104.167 122.917 104.167C135.272 104.167 146.613 105.593 154.997 107.988C159.161 109.178 162.834 110.673 165.561 112.515ZM122.917 108.334C147.079 108.334 166.667 113.93 166.667 120.834V133.334C166.667 140.237 147.079 145.834 122.917 145.834C98.7542 145.834 79.1667 140.237 79.1667 133.334V120.834C79.1667 113.93 98.7542 108.334 122.917 108.334Z" fill="#B96F00"/>
<path d="M166.667 120.833C166.667 127.737 147.079 133.333 122.917 133.333C98.7542 133.333 79.1667 127.737 79.1667 120.833C79.1667 113.929 98.7542 108.333 122.917 108.333C147.079 108.333 166.667 113.929 166.667 120.833Z" fill="#FFCF23"/>
<path fill-rule="evenodd" clip-rule="evenodd" d="M154.997 133.679C146.613 136.075 135.272 137.5 122.917 137.5C110.561 137.5 99.2204 136.075 90.836 133.679C86.6723 132.489 82.9996 130.994 80.2725 129.152C77.6906 127.408 75 124.674 75 120.834C75 116.993 77.6906 114.259 80.2725 112.515C82.9996 110.673 86.6723 109.178 90.836 107.988C99.2204 105.593 110.561 104.167 122.917 104.167C135.272 104.167 146.613 105.593 154.997 107.988C159.161 109.178 162.834 110.673 165.561 112.515C168.143 114.259 170.833 116.993 170.833 120.834C170.833 124.674 168.143 127.408 165.561 129.152C162.834 130.994 159.161 132.489 154.997 133.679ZM122.917 133.334C147.079 133.334 166.667 127.737 166.667 120.834C166.667 113.93 147.079 108.334 122.917 108.334C98.7542 108.334 79.1667 113.93 79.1667 120.834C79.1667 127.737 98.7542 133.334 122.917 133.334Z" fill="#B96F00"/>
<path fill-rule="evenodd" clip-rule="evenodd" d="M89.5833 129.167C90.734 129.167 91.6667 130.1 91.6667 131.25V142.709C91.6667 143.859 90.734 144.792 89.5833 144.792C88.4327 144.792 87.5 143.859 87.5 142.709V131.25C87.5 130.1 88.4327 129.167 89.5833 129.167ZM156.25 129.167C157.401 129.167 158.333 130.1 158.333 131.25V142.709C158.333 143.859 157.401 144.792 156.25 144.792C155.099 144.792 154.167 143.859 154.167 142.709V131.25C154.167 130.1 155.099 129.167 156.25 129.167ZM106.25 133.334C107.401 133.334 108.333 134.266 108.333 135.417V144.792C108.333 145.943 107.401 146.875 106.25 146.875C105.099 146.875 104.167 145.943 104.167 144.792V135.417C104.167 134.266 105.099 133.334 106.25 133.334ZM141.667 133.334C142.817 133.334 143.75 134.266 143.75 135.417V144.792C143.75 145.943 142.817 146.875 141.667 146.875C140.516 146.875 139.583 145.943 139.583 144.792V135.417C139.583 134.266 140.516 133.334 141.667 133.334ZM125 133.334C126.151 133.334 127.083 134.266 127.083 135.417V144.792C127.083 145.943 126.151 146.875 125 146.875C123.849 146.875 122.917 145.943 122.917 144.792V135.417C122.917 134.266 123.849 133.334 125 133.334Z" fill="#B96F00"/>
<path d="M164.583 100C164.583 93.0965 144.996 87.5 120.833 87.5C96.6708 87.5 77.0833 93.0965 77.0833 100V112.5C77.0833 119.404 96.6708 125 120.833 125C144.996 125 164.583 119.404 164.583 112.5V100Z" fill="#D18A00"/>
<path fill-rule="evenodd" clip-rule="evenodd" d="M163.478 91.6813C166.059 93.4255 168.75 96.1593 168.75 99.9997V112.5C168.75 116.34 166.059 119.074 163.478 120.818C160.75 122.66 157.078 124.155 152.914 125.345C144.53 127.741 133.189 129.166 120.833 129.166C108.478 129.166 97.1371 127.741 88.7527 125.345C84.589 124.155 80.9163 122.66 78.1892 120.818C75.6073 119.074 72.9167 116.34 72.9167 112.5V99.9997C72.9167 96.1593 75.6073 93.4255 78.1892 91.6813C80.9163 89.839 84.589 88.3443 88.7527 87.1545C97.1371 84.7588 108.478 83.333 120.833 83.333C133.189 83.333 144.53 84.7588 152.914 87.1545C157.078 88.3443 160.75 89.839 163.478 91.6813ZM120.833 87.4997C144.996 87.4997 164.583 93.0961 164.583 99.9997V112.5C164.583 119.403 144.996 125 120.833 125C96.6709 125 77.0834 119.403 77.0834 112.5V99.9997C77.0834 93.0961 96.6709 87.4997 120.833 87.4997Z" fill="#B96F00"/>
<path d="M164.583 100C164.583 106.904 144.996 112.5 120.833 112.5C96.6708 112.5 77.0833 106.904 77.0833 100C77.0833 93.0965 96.6708 87.5 120.833 87.5C144.996 87.5 164.583 93.0965 164.583 100Z" fill="#FFCF23"/>
<path fill-rule="evenodd" clip-rule="evenodd" d="M152.914 112.845C144.529 115.241 133.189 116.666 120.833 116.666C108.478 116.666 97.1371 115.241 88.7527 112.845C84.589 111.655 80.9163 110.16 78.1892 108.318C75.6073 106.574 72.9167 103.84 72.9167 99.9997C72.9167 96.1593 75.6073 93.4255 78.1892 91.6813C80.9163 89.839 84.589 88.3443 88.7527 87.1545C97.1371 84.7588 108.478 83.333 120.833 83.333C133.189 83.333 144.529 84.7588 152.914 87.1545C157.078 88.3443 160.75 89.839 163.478 91.6813C166.059 93.4255 168.75 96.1593 168.75 99.9997C168.75 103.84 166.059 106.574 163.478 108.318C160.75 110.16 157.078 111.655 152.914 112.845ZM120.833 112.5C144.996 112.5 164.583 106.903 164.583 99.9997C164.583 93.0961 144.996 87.4997 120.833 87.4997C96.6709 87.4997 77.0834 93.0961 77.0834 99.9997C77.0834 106.903 96.6709 112.5 120.833 112.5Z" fill="#B96F00"/>
<path fill-rule="evenodd" clip-rule="evenodd" d="M87.5 108.333C88.6506 108.333 89.5834 109.266 89.5834 110.416V121.875C89.5834 123.025 88.6506 123.958 87.5 123.958C86.3494 123.958 85.4167 123.025 85.4167 121.875V110.416C85.4167 109.266 86.3494 108.333 87.5 108.333ZM154.167 108.333C155.317 108.333 156.25 109.266 156.25 110.416V121.875C156.25 123.025 155.317 123.958 154.167 123.958C153.016 123.958 152.083 123.025 152.083 121.875V110.416C152.083 109.266 153.016 108.333 154.167 108.333ZM104.167 112.5C105.317 112.5 106.25 113.432 106.25 114.583V123.958C106.25 125.109 105.317 126.041 104.167 126.041C103.016 126.041 102.083 125.109 102.083 123.958V114.583C102.083 113.432 103.016 112.5 104.167 112.5ZM139.583 112.5C140.734 112.5 141.667 113.432 141.667 114.583V123.958C141.667 125.109 140.734 126.041 139.583 126.041C138.433 126.041 137.5 125.109 137.5 123.958V114.583C137.5 113.432 138.433 112.5 139.583 112.5ZM122.917 112.5C124.067 112.5 125 113.432 125 114.583V123.958C125 125.109 124.067 126.041 122.917 126.041C121.766 126.041 120.833 125.109 120.833 123.958V114.583C120.833 113.432 121.766 112.5 122.917 112.5Z" fill="#B96F00"/>
<path d="M175 85.417C175 78.5135 155.412 72.917 131.25 72.917C107.087 72.917 87.5 78.5135 87.5 85.417V97.917C87.5 104.821 107.087 110.417 131.25 110.417C155.412 110.417 175 104.821 175 97.917V85.417Z" fill="#D18A00"/>
<path fill-rule="evenodd" clip-rule="evenodd" d="M173.894 77.0983C176.476 78.8425 179.167 81.5763 179.167 85.4167V97.9167C179.167 101.757 176.476 104.491 173.894 106.235C171.167 108.077 167.494 109.572 163.331 110.762C154.946 113.158 143.605 114.583 131.25 114.583C118.895 114.583 107.554 113.158 99.1694 110.762C95.0056 109.572 91.3329 108.077 88.6058 106.235C86.0239 104.491 83.3333 101.757 83.3333 97.9167V85.4167C83.3333 81.5763 86.0239 78.8425 88.6058 77.0983C91.3329 75.256 95.0056 73.7613 99.1694 72.5715C107.554 70.1758 118.895 68.75 131.25 68.75C143.605 68.75 154.946 70.1758 163.331 72.5715C167.494 73.7613 171.167 75.256 173.894 77.0983ZM131.25 72.9167C155.412 72.9167 175 78.5131 175 85.4167V97.9167C175 104.82 155.412 110.417 131.25 110.417C107.087 110.417 87.5 104.82 87.5 97.9167V85.4167C87.5 78.5131 107.087 72.9167 131.25 72.9167Z" fill="#B96F00"/>
<path d="M175 85.417C175 92.3205 155.412 97.917 131.25 97.917C107.087 97.917 87.5 92.3205 87.5 85.417C87.5 78.5135 107.087 72.917 131.25 72.917C155.412 72.917 175 78.5135 175 85.417Z" fill="#FFCF23"/>
<path fill-rule="evenodd" clip-rule="evenodd" d="M163.331 98.2619C154.946 100.658 143.605 102.083 131.25 102.083C118.895 102.083 107.554 100.658 99.1694 98.2619C95.0056 97.0721 91.3329 95.5773 88.6058 93.735C86.0239 91.9908 83.3333 89.2571 83.3333 85.4167C83.3333 81.5763 86.0239 78.8425 88.6058 77.0983C91.3329 75.256 95.0056 73.7613 99.1694 72.5715C107.554 70.1758 118.895 68.75 131.25 68.75C143.605 68.75 154.946 70.1758 163.331 72.5715C167.494 73.7613 171.167 75.256 173.894 77.0983C176.476 78.8425 179.167 81.5763 179.167 85.4167C179.167 89.2571 176.476 91.9908 173.894 93.735C171.167 95.5773 167.494 97.0721 163.331 98.2619ZM131.25 97.9167C155.412 97.9167 175 92.3202 175 85.4167C175 78.5131 155.412 72.9167 131.25 72.9167C107.087 72.9167 87.5 78.5131 87.5 85.4167C87.5 92.3202 107.087 97.9167 131.25 97.9167Z" fill="#B96F00"/>
<path fill-rule="evenodd" clip-rule="evenodd" d="M97.9166 93.75C99.0673 93.75 100 94.6827 100 95.8333V107.292C100 108.442 99.0673 109.375 97.9166 109.375C96.766 109.375 95.8333 108.442 95.8333 107.292V95.8333C95.8333 94.6827 96.766 93.75 97.9166 93.75ZM164.583 93.75C165.734 93.75 166.667 94.6827 166.667 95.8333V107.292C166.667 108.442 165.734 109.375 164.583 109.375C163.433 109.375 162.5 108.442 162.5 107.292V95.8333C162.5 94.6827 163.433 93.75 164.583 93.75ZM114.583 97.9167C115.734 97.9167 116.667 98.8494 116.667 100V109.375C116.667 110.526 115.734 111.458 114.583 111.458C113.433 111.458 112.5 110.526 112.5 109.375V100C112.5 98.8494 113.433 97.9167 114.583 97.9167ZM150 97.9167C151.151 97.9167 152.083 98.8494 152.083 100V109.375C152.083 110.526 151.151 111.458 150 111.458C148.849 111.458 147.917 110.526 147.917 109.375V100C147.917 98.8494 148.849 97.9167 150 97.9167ZM133.333 97.9167C134.484 97.9167 135.417 98.8494 135.417 100V109.375C135.417 110.526 134.484 111.458 133.333 111.458C132.183 111.458 131.25 110.526 131.25 109.375V100C131.25 98.8494 132.183 97.9167 133.333 97.9167Z" fill="#B96F00"/>
<path d="M125 68.7497C125 64.9093 122.309 62.1755 119.728 60.4313C117 58.589 113.328 57.0943 109.164 55.9045C100.78 53.5088 89.4385 52.083 77.0833 52.083C64.7281 52.083 53.3871 53.5088 45.0027 55.9045C40.8389 57.0943 37.1662 58.589 34.4392 60.4313C31.8573 62.1755 29.1667 64.9093 29.1667 68.7497V81.2497C29.1667 85.0901 31.8573 87.8238 34.4392 89.568C36.2558 90.7953 38.4923 91.8684 41.014 92.7999C40.2385 92.9938 39.4844 93.1955 38.7527 93.4045C34.5889 94.5943 30.9162 96.089 28.1892 97.9313C25.6073 99.6755 22.9167 102.409 22.9167 106.25V118.75C22.9167 122.59 25.6073 125.324 28.1892 127.068C30.6394 128.723 33.8527 130.098 37.5 131.223V131.603C36.3839 132.146 35.3579 132.727 34.4392 133.348C31.8573 135.092 29.1667 137.826 29.1667 141.666V154.166C29.1667 158.007 31.8573 160.741 34.4392 162.485C37.1662 164.327 40.8389 165.822 45.0027 167.012C53.3871 169.407 64.7281 170.833 77.0833 170.833C89.4385 170.833 100.78 169.407 109.164 167.012C113.328 165.822 117 164.327 119.728 162.485C122.309 160.741 125 158.007 125 154.166V145.48C126.116 144.937 127.142 144.355 128.061 143.735C130.643 141.991 133.333 139.257 133.333 135.416V122.916C133.333 119.076 130.643 116.342 128.061 114.598C126.786 113.737 125.304 112.951 123.662 112.238C127.002 111.158 129.946 109.859 132.228 108.318C134.809 106.574 137.5 103.84 137.5 99.9997V87.4997C137.5 83.6593 134.809 80.9255 132.228 79.1813C130.255 77.8493 127.789 76.6986 125 75.7138V68.7497Z" fill="#021024" fill-opacity="0.1"/>
<path d="M116.667 137.5C116.667 130.596 97.0792 125 72.9167 125C48.7542 125 29.1667 130.596 29.1667 137.5V150C29.1667 156.904 48.7542 162.5 72.9167 162.5C97.0792 162.5 116.667 156.904 116.667 150V137.5Z" fill="#D18A00"/>
<path fill-rule="evenodd" clip-rule="evenodd" d="M115.561 129.181C118.143 130.926 120.833 133.659 120.833 137.5V150C120.833 153.84 118.143 156.574 115.561 158.318C112.834 160.16 109.161 161.655 104.997 162.845C96.6129 165.241 85.2719 166.666 72.9167 166.666C60.5615 166.666 49.2204 165.241 40.836 162.845C36.6723 161.655 32.9996 160.16 30.2725 158.318C27.6906 156.574 25 153.84 25 150V137.5C25 133.659 27.6906 130.926 30.2725 129.181C32.9996 127.339 36.6723 125.844 40.836 124.654C49.2204 122.259 60.5615 120.833 72.9167 120.833C85.2719 120.833 96.6129 122.259 104.997 124.654C109.161 125.844 112.834 127.339 115.561 129.181ZM72.9167 125C97.0792 125 116.667 130.596 116.667 137.5V150C116.667 156.903 97.0792 162.5 72.9167 162.5C48.7542 162.5 29.1667 156.903 29.1667 150V137.5C29.1667 130.596 48.7542 125 72.9167 125Z" fill="#B96F00"/>
<path d="M116.667 137.5C116.667 144.404 97.0792 150 72.9167 150C48.7542 150 29.1667 144.404 29.1667 137.5C29.1667 130.596 48.7542 125 72.9167 125C97.0792 125 116.667 130.596 116.667 137.5Z" fill="#FFCF23"/>
<path fill-rule="evenodd" clip-rule="evenodd" d="M104.997 150.345C96.6127 152.741 85.2719 154.166 72.9167 154.166C60.5615 154.166 49.2204 152.741 40.836 150.345C36.6723 149.155 32.9996 147.66 30.2725 145.818C27.6906 144.074 25 141.34 25 137.5C25 133.659 27.6906 130.926 30.2725 129.181C32.9996 127.339 36.6723 125.844 40.836 124.654C49.2204 122.259 60.5615 120.833 72.9167 120.833C85.2719 120.833 96.6127 122.259 104.997 124.654C109.161 125.844 112.834 127.339 115.561 129.181C118.143 130.926 120.833 133.659 120.833 137.5C120.833 141.34 118.143 144.074 115.561 145.818C112.834 147.66 109.161 149.155 104.997 150.345ZM72.9167 150C97.0792 150 116.667 144.403 116.667 137.5C116.667 130.596 97.0792 125 72.9167 125C48.7542 125 29.1667 130.596 29.1667 137.5C29.1667 144.403 48.7542 150 72.9167 150Z" fill="#B96F00"/>
<path fill-rule="evenodd" clip-rule="evenodd" d="M39.5833 145.833C40.734 145.833 41.6667 146.766 41.6667 147.916V159.375C41.6667 160.525 40.734 161.458 39.5833 161.458C38.4327 161.458 37.5 160.525 37.5 159.375V147.916C37.5 146.766 38.4327 145.833 39.5833 145.833ZM106.25 145.833C107.401 145.833 108.333 146.766 108.333 147.916V159.375C108.333 160.525 107.401 161.458 106.25 161.458C105.099 161.458 104.167 160.525 104.167 159.375V147.916C104.167 146.766 105.099 145.833 106.25 145.833ZM56.25 150C57.4006 150 58.3333 150.932 58.3333 152.083V161.458C58.3333 162.609 57.4006 163.541 56.25 163.541C55.0994 163.541 54.1667 162.609 54.1667 161.458V152.083C54.1667 150.932 55.0994 150 56.25 150ZM91.6667 150C92.8173 150 93.75 150.932 93.75 152.083V161.458C93.75 162.609 92.8173 163.541 91.6667 163.541C90.516 163.541 89.5833 162.609 89.5833 161.458V152.083C89.5833 150.932 90.516 150 91.6667 150ZM75 150C76.1506 150 77.0833 150.932 77.0833 152.083V161.458C77.0833 162.609 76.1506 163.541 75 163.541C73.8494 163.541 72.9167 162.609 72.9167 161.458V152.083C72.9167 150.932 73.8494 150 75 150Z" fill="#B96F00"/>
<path d="M125 118.75C125 111.846 105.412 106.25 81.25 106.25C57.0875 106.25 37.5 111.846 37.5 118.75V131.25C37.5 138.154 57.0875 143.75 81.25 143.75C105.412 143.75 125 138.154 125 131.25V118.75Z" fill="#D18A00"/>
<path fill-rule="evenodd" clip-rule="evenodd" d="M123.894 110.431C126.476 112.176 129.167 114.909 129.167 118.75V131.25C129.167 135.09 126.476 137.824 123.894 139.568C121.167 141.41 117.494 142.905 113.331 144.095C104.946 146.491 93.6052 147.916 81.25 147.916C68.8948 147.916 57.5538 146.491 49.1694 144.095C45.0056 142.905 41.3329 141.41 38.6058 139.568C36.024 137.824 33.3333 135.09 33.3333 131.25V118.75C33.3333 114.909 36.024 112.176 38.6058 110.431C41.3329 108.589 45.0056 107.094 49.1694 105.904C57.5538 103.509 68.8948 102.083 81.25 102.083C93.6052 102.083 104.946 103.509 113.331 105.904C117.494 107.094 121.167 108.589 123.894 110.431ZM81.25 106.25C105.413 106.25 125 111.846 125 118.75V131.25C125 138.153 105.413 143.75 81.25 143.75C57.0875 143.75 37.5 138.153 37.5 131.25V118.75C37.5 111.846 57.0875 106.25 81.25 106.25Z" fill="#B96F00"/>
<path d="M125 118.75C125 125.654 105.412 131.25 81.25 131.25C57.0875 131.25 37.5 125.654 37.5 118.75C37.5 111.846 57.0875 106.25 81.25 106.25C105.412 106.25 125 111.846 125 118.75Z" fill="#FFCF23"/>
<path fill-rule="evenodd" clip-rule="evenodd" d="M113.331 131.595C104.946 133.991 93.6052 135.416 81.25 135.416C68.8948 135.416 57.5538 133.991 49.1694 131.595C45.0056 130.405 41.3329 128.91 38.6058 127.068C36.024 125.324 33.3333 122.59 33.3333 118.75C33.3333 114.909 36.024 112.176 38.6058 110.431C41.3329 108.589 45.0056 107.094 49.1694 105.904C57.5538 103.509 68.8948 102.083 81.25 102.083C93.6052 102.083 104.946 103.509 113.331 105.904C117.494 107.094 121.167 108.589 123.894 110.431C126.476 112.176 129.167 114.909 129.167 118.75C129.167 122.59 126.476 125.324 123.894 127.068C121.167 128.91 117.494 130.405 113.331 131.595ZM81.25 131.25C105.413 131.25 125 125.653 125 118.75C125 111.846 105.413 106.25 81.25 106.25C57.0875 106.25 37.5 111.846 37.5 118.75C37.5 125.653 57.0875 131.25 81.25 131.25Z" fill="#B96F00"/>
<path fill-rule="evenodd" clip-rule="evenodd" d="M47.9167 127.083C49.0673 127.083 50 128.016 50 129.166V140.625C50 141.775 49.0673 142.708 47.9167 142.708C46.7661 142.708 45.8333 141.775 45.8333 140.625V129.166C45.8333 128.016 46.7661 127.083 47.9167 127.083ZM114.583 127.083C115.734 127.083 116.667 128.016 116.667 129.166V140.625C116.667 141.775 115.734 142.708 114.583 142.708C113.433 142.708 112.5 141.775 112.5 140.625V129.166C112.5 128.016 113.433 127.083 114.583 127.083ZM64.5833 131.25C65.734 131.25 66.6667 132.182 66.6667 133.333V142.708C66.6667 143.859 65.734 144.791 64.5833 144.791C63.4327 144.791 62.5 143.859 62.5 142.708V133.333C62.5 132.182 63.4327 131.25 64.5833 131.25ZM100 131.25C101.151 131.25 102.083 132.182 102.083 133.333V142.708C102.083 143.859 101.151 144.791 100 144.791C98.8494 144.791 97.9167 143.859 97.9167 142.708V133.333C97.9167 132.182 98.8494 131.25 100 131.25ZM83.3333 131.25C84.484 131.25 85.4167 132.182 85.4167 133.333V142.708C85.4167 143.859 84.484 144.791 83.3333 144.791C82.1827 144.791 81.25 143.859 81.25 142.708V133.333C81.25 132.182 82.1827 131.25 83.3333 131.25Z" fill="#B96F00"/>
<path d="M110.417 102.083C110.417 95.1795 90.8292 89.583 66.6667 89.583C42.5042 89.583 22.9167 95.1795 22.9167 102.083V114.583C22.9167 121.487 42.5042 127.083 66.6667 127.083C90.8292 127.083 110.417 121.487 110.417 114.583V102.083Z" fill="#D18A00"/>
<path fill-rule="evenodd" clip-rule="evenodd" d="M109.311 93.7653C111.893 95.5095 114.583 98.2432 114.583 102.084V114.584C114.583 118.424 111.893 121.158 109.311 122.902C106.584 124.744 102.911 126.239 98.7473 127.429C90.3629 129.824 79.0219 131.25 66.6667 131.25C54.3115 131.25 42.9704 129.824 34.586 127.429C30.4223 126.239 26.7496 124.744 24.0225 122.902C21.4406 121.158 18.75 118.424 18.75 114.584V102.084C18.75 98.2432 21.4406 95.5095 24.0225 93.7653C26.7496 91.923 30.4223 90.4282 34.586 89.2385C42.9704 86.8428 54.3115 85.417 66.6667 85.417C79.0219 85.417 90.3629 86.8428 98.7473 89.2385C102.911 90.4282 106.584 91.923 109.311 93.7653ZM66.6667 89.5837C90.8292 89.5837 110.417 95.1801 110.417 102.084V114.584C110.417 121.487 90.8292 127.084 66.6667 127.084C42.5042 127.084 22.9167 121.487 22.9167 114.584V102.084C22.9167 95.1801 42.5042 89.5837 66.6667 89.5837Z" fill="#B96F00"/>
<path d="M110.417 102.083C110.417 108.987 90.8292 114.583 66.6667 114.583C42.5042 114.583 22.9167 108.987 22.9167 102.083C22.9167 95.1795 42.5042 89.583 66.6667 89.583C90.8292 89.583 110.417 95.1795 110.417 102.083Z" fill="#FFCF23"/>
<path fill-rule="evenodd" clip-rule="evenodd" d="M98.7473 114.929C90.3627 117.324 79.0219 118.75 66.6667 118.75C54.3115 118.75 42.9704 117.324 34.586 114.929C30.4223 113.739 26.7496 112.244 24.0225 110.402C21.4406 108.658 18.75 105.924 18.75 102.084C18.75 98.2432 21.4406 95.5095 24.0225 93.7653C26.7496 91.923 30.4223 90.4282 34.586 89.2385C42.9704 86.8428 54.3115 85.417 66.6667 85.417C79.0219 85.417 90.3627 86.8428 98.7473 89.2385C102.911 90.4282 106.584 91.923 109.311 93.7653C111.893 95.5095 114.583 98.2432 114.583 102.084C114.583 105.924 111.893 108.658 109.311 110.402C106.584 112.244 102.911 113.739 98.7473 114.929ZM66.6667 114.584C90.8292 114.584 110.417 108.987 110.417 102.084C110.417 95.1801 90.8292 89.5837 66.6667 89.5837C42.5042 89.5837 22.9167 95.1801 22.9167 102.084C22.9167 108.987 42.5042 114.584 66.6667 114.584Z" fill="#B96F00"/>
<path fill-rule="evenodd" clip-rule="evenodd" d="M33.3333 110.417C34.484 110.417 35.4167 111.35 35.4167 112.5V123.959C35.4167 125.109 34.484 126.042 33.3333 126.042C32.1827 126.042 31.25 125.109 31.25 123.959V112.5C31.25 111.35 32.1827 110.417 33.3333 110.417ZM100 110.417C101.151 110.417 102.083 111.35 102.083 112.5V123.959C102.083 125.109 101.151 126.042 100 126.042C98.8494 126.042 97.9167 125.109 97.9167 123.959V112.5C97.9167 111.35 98.8494 110.417 100 110.417ZM50 114.584C51.1506 114.584 52.0833 115.516 52.0833 116.667V126.042C52.0833 127.193 51.1506 128.125 50 128.125C48.8494 128.125 47.9167 127.193 47.9167 126.042V116.667C47.9167 115.516 48.8494 114.584 50 114.584ZM85.4167 114.584C86.5673 114.584 87.5 115.516 87.5 116.667V126.042C87.5 127.193 86.5673 128.125 85.4167 128.125C84.266 128.125 83.3333 127.193 83.3333 126.042V116.667C83.3333 115.516 84.266 114.584 85.4167 114.584ZM68.75 114.584C69.9006 114.584 70.8333 115.516 70.8333 116.667V126.042C70.8333 127.193 69.9006 128.125 68.75 128.125C67.5994 128.125 66.6667 127.193 66.6667 126.042V116.667C66.6667 115.516 67.5994 114.584 68.75 114.584Z" fill="#B96F00"/>
<path d="M129.167 83.333C129.167 76.4295 109.579 70.833 85.4167 70.833C61.2542 70.833 41.6667 76.4295 41.6667 83.333V95.833C41.6667 102.737 61.2542 108.333 85.4167 108.333C109.579 108.333 129.167 102.737 129.167 95.833V83.333Z" fill="#D18A00"/>
<path fill-rule="evenodd" clip-rule="evenodd" d="M128.061 75.0153C130.643 76.7595 133.333 79.4932 133.333 83.3337V95.8337C133.333 99.6741 130.643 102.408 128.061 104.152C125.334 105.994 121.661 107.489 117.497 108.679C109.113 111.074 97.7719 112.5 85.4167 112.5C73.0615 112.5 61.7204 111.074 53.336 108.679C49.1723 107.489 45.4996 105.994 42.7725 104.152C40.1906 102.408 37.5 99.6741 37.5 95.8337V83.3337C37.5 79.4932 40.1906 76.7595 42.7725 75.0153C45.4996 73.173 49.1723 71.6782 53.336 70.4885C61.7204 68.0928 73.0615 66.667 85.4167 66.667C97.7719 66.667 109.113 68.0928 117.497 70.4885C121.661 71.6782 125.334 73.173 128.061 75.0153ZM85.4167 70.8337C109.579 70.8337 129.167 76.4301 129.167 83.3337V95.8337C129.167 102.737 109.579 108.334 85.4167 108.334C61.2542 108.334 41.6667 102.737 41.6667 95.8337V83.3337C41.6667 76.4301 61.2542 70.8337 85.4167 70.8337Z" fill="#B96F00"/>
<path d="M129.167 83.333C129.167 90.2365 109.579 95.833 85.4167 95.833C61.2542 95.833 41.6667 90.2365 41.6667 83.333C41.6667 76.4295 61.2542 70.833 85.4167 70.833C109.579 70.833 129.167 76.4295 129.167 83.333Z" fill="#FFCF23"/>
<path fill-rule="evenodd" clip-rule="evenodd" d="M117.497 96.1789C109.113 98.5745 97.7719 100 85.4167 100C73.0615 100 61.7204 98.5745 53.336 96.1789C49.1723 94.9891 45.4996 93.4943 42.7725 91.652C40.1906 89.9078 37.5 87.1741 37.5 83.3337C37.5 79.4932 40.1906 76.7595 42.7725 75.0153C45.4996 73.173 49.1723 71.6782 53.336 70.4885C61.7204 68.0928 73.0615 66.667 85.4167 66.667C97.7719 66.667 109.113 68.0928 117.497 70.4885C121.661 71.6782 125.334 73.173 128.061 75.0153C130.643 76.7595 133.333 79.4932 133.333 83.3337C133.333 87.1741 130.643 89.9078 128.061 91.652C125.334 93.4943 121.661 94.9891 117.497 96.1789ZM85.4167 95.8337C109.579 95.8337 129.167 90.2372 129.167 83.3337C129.167 76.4301 109.579 70.8337 85.4167 70.8337C61.2542 70.8337 41.6667 76.4301 41.6667 83.3337C41.6667 90.2372 61.2542 95.8337 85.4167 95.8337Z" fill="#B96F00"/>
<path fill-rule="evenodd" clip-rule="evenodd" d="M52.0833 91.667C53.234 91.667 54.1667 92.5997 54.1667 93.7503V105.209C54.1667 106.359 53.234 107.292 52.0833 107.292C50.9327 107.292 50 106.359 50 105.209V93.7503C50 92.5997 50.9327 91.667 52.0833 91.667ZM118.75 91.667C119.901 91.667 120.833 92.5997 120.833 93.7503V105.209C120.833 106.359 119.901 107.292 118.75 107.292C117.599 107.292 116.667 106.359 116.667 105.209V93.7503C116.667 92.5997 117.599 91.667 118.75 91.667ZM68.75 95.8337C69.9006 95.8337 70.8333 96.7664 70.8333 97.917V107.292C70.8333 108.443 69.9006 109.375 68.75 109.375C67.5994 109.375 66.6667 108.443 66.6667 107.292V97.917C66.6667 96.7664 67.5994 95.8337 68.75 95.8337ZM104.167 95.8337C105.317 95.8337 106.25 96.7664 106.25 97.917V107.292C106.25 108.443 105.317 109.375 104.167 109.375C103.016 109.375 102.083 108.443 102.083 107.292V97.917C102.083 96.7664 103.016 95.8337 104.167 95.8337ZM87.5 95.8337C88.6506 95.8337 89.5833 96.7664 89.5833 97.917V107.292C89.5833 108.443 88.6506 109.375 87.5 109.375C86.3494 109.375 85.4167 108.443 85.4167 107.292V97.917C85.4167 96.7664 86.3494 95.8337 87.5 95.8337Z" fill="#B96F00"/>
<path d="M116.667 64.583C116.667 57.6795 97.0792 52.083 72.9167 52.083C48.7542 52.083 29.1667 57.6795 29.1667 64.583V77.083C29.1667 83.9865 48.7542 89.583 72.9167 89.583C97.0792 89.583 116.667 83.9865 116.667 77.083V64.583Z" fill="#D18A00"/>
<path fill-rule="evenodd" clip-rule="evenodd" d="M115.561 56.2653C118.143 58.0095 120.833 60.7432 120.833 64.5837V77.0837C120.833 80.9241 118.143 83.6578 115.561 85.402C112.834 87.2443 109.161 88.7391 104.997 89.9289C96.6129 92.3245 85.2719 93.7503 72.9167 93.7503C60.5615 93.7503 49.2204 92.3245 40.836 89.9289C36.6723 88.7391 32.9996 87.2443 30.2725 85.402C27.6906 83.6578 25 80.9241 25 77.0837V64.5837C25 60.7432 27.6906 58.0095 30.2725 56.2653C32.9996 54.423 36.6723 52.9282 40.836 51.7384C49.2204 49.3428 60.5615 47.917 72.9167 47.917C85.2719 47.917 96.6129 49.3428 104.997 51.7384C109.161 52.9282 112.834 54.423 115.561 56.2653ZM72.9167 52.0837C97.0792 52.0837 116.667 57.6801 116.667 64.5837V77.0837C116.667 83.9872 97.0792 89.5837 72.9167 89.5837C48.7542 89.5837 29.1667 83.9872 29.1667 77.0837V64.5837C29.1667 57.6801 48.7542 52.0837 72.9167 52.0837Z" fill="#B96F00"/>
<path d="M116.667 64.583C116.667 71.4865 97.0792 77.083 72.9167 77.083C48.7542 77.083 29.1667 71.4865 29.1667 64.583C29.1667 57.6795 48.7542 52.083 72.9167 52.083C97.0792 52.083 116.667 57.6795 116.667 64.583Z" fill="#FFD952"/>
<path fill-rule="evenodd" clip-rule="evenodd" d="M104.997 77.4289C96.6127 79.8245 85.2719 81.2503 72.9167 81.2503C60.5615 81.2503 49.2204 79.8245 40.836 77.4289C36.6723 76.2391 32.9996 74.7443 30.2725 72.902C27.6906 71.1578 25 68.4241 25 64.5837C25 60.7432 27.6906 58.0095 30.2725 56.2653C32.9996 54.423 36.6723 52.9282 40.836 51.7384C49.2204 49.3428 60.5615 47.917 72.9167 47.917C85.2719 47.917 96.6127 49.3428 104.997 51.7384C109.161 52.9282 112.834 54.423 115.561 56.2653C118.143 58.0095 120.833 60.7432 120.833 64.5837C120.833 68.4241 118.143 71.1578 115.561 72.902C112.834 74.7443 109.161 76.2391 104.997 77.4289ZM72.9167 77.0837C97.0792 77.0837 116.667 71.4872 116.667 64.5837C116.667 57.6801 97.0792 52.0837 72.9167 52.0837C48.7542 52.0837 29.1667 57.6801 29.1667 64.5837C29.1667 71.4872 48.7542 77.0837 72.9167 77.0837Z" fill="#B96F00"/>
<path d="M97.9167 63.5417C97.9167 67.5687 86.7237 70.8333 72.9167 70.8333C59.1096 70.8333 47.9167 67.5687 47.9167 63.5417C47.9167 59.5146 59.1096 56.25 72.9167 56.25C86.7237 56.25 97.9167 59.5146 97.9167 63.5417Z" fill="#FEE790"/>
<path fill-rule="evenodd" clip-rule="evenodd" d="M39.5833 72.917C40.734 72.917 41.6667 73.8497 41.6667 75.0003V86.4587C41.6667 87.6093 40.734 88.542 39.5833 88.542C38.4327 88.542 37.5 87.6093 37.5 86.4587V75.0003C37.5 73.8497 38.4327 72.917 39.5833 72.917ZM106.25 72.917C107.401 72.917 108.333 73.8497 108.333 75.0003V86.4587C108.333 87.6093 107.401 88.542 106.25 88.542C105.099 88.542 104.167 87.6093 104.167 86.4587V75.0003C104.167 73.8497 105.099 72.917 106.25 72.917ZM56.25 77.0837C57.4006 77.0837 58.3333 78.0164 58.3333 79.167V88.542C58.3333 89.6926 57.4006 90.6253 56.25 90.6253C55.0994 90.6253 54.1667 89.6926 54.1667 88.542V79.167C54.1667 78.0164 55.0994 77.0837 56.25 77.0837ZM91.6667 77.0837C92.8173 77.0837 93.75 78.0164 93.75 79.167V88.542C93.75 89.6926 92.8173 90.6253 91.6667 90.6253C90.516 90.6253 89.5833 89.6926 89.5833 88.542V79.167C89.5833 78.0164 90.516 77.0837 91.6667 77.0837ZM75 77.0837C76.1506 77.0837 77.0833 78.0164 77.0833 79.167V88.542C77.0833 89.6926 76.1506 90.6253 75 90.6253C73.8494 90.6253 72.9167 89.6926 72.9167 88.542V79.167C72.9167 78.0164 73.8494 77.0837 75 77.0837Z" fill="#B96F00"/>
<path fill-rule="evenodd" clip-rule="evenodd" d="M31.25 62.5C32.4006 62.5 33.3333 63.4327 33.3333 64.5833C33.3333 64.8825 33.5987 65.7102 35.4612 66.8692C37.2127 67.9587 39.8858 69.0165 43.3739 69.9344C50.3192 71.7619 60.0283 72.9167 70.8333 72.9167C71.9839 72.9167 72.9167 73.8494 72.9167 75C72.9167 76.1506 71.9839 77.0833 70.8333 77.0833C59.7771 77.0833 49.6946 75.9063 42.3135 73.9638C38.6383 72.9967 35.5146 71.8096 33.26 70.4069C31.1167 69.0733 29.1667 67.1606 29.1667 64.5833C29.1667 63.4327 30.0994 62.5 31.25 62.5Z" fill="#FFF1B9"/>
<path d="M152.083 183.333C172.794 183.333 189.583 166.544 189.583 145.833C189.583 125.122 172.794 108.333 152.083 108.333C131.373 108.333 114.583 125.122 114.583 145.833C114.583 166.544 131.373 183.333 152.083 183.333Z" fill="#021024" fill-opacity="0.1"/>
<path d="M183.333 143.75C183.333 162.16 168.41 177.084 150 177.084C131.59 177.084 116.667 162.16 116.667 143.75C116.667 125.341 131.59 110.417 150 110.417C168.41 110.417 183.333 125.341 183.333 143.75Z" fill="#FFCF23"/>
<path fill-rule="evenodd" clip-rule="evenodd" d="M187.5 143.75C187.5 164.461 170.711 181.25 150 181.25C129.289 181.25 112.5 164.461 112.5 143.75C112.5 123.039 129.289 106.25 150 106.25C170.711 106.25 187.5 123.039 187.5 143.75ZM150 177.083C168.41 177.083 183.333 162.16 183.333 143.75C183.333 125.34 168.41 110.417 150 110.417C131.59 110.417 116.667 125.34 116.667 143.75C116.667 162.16 131.59 177.083 150 177.083Z" fill="#B96F00"/>
<path fill-rule="evenodd" clip-rule="evenodd" d="M150 116.667C135.042 116.667 122.917 128.792 122.917 143.75C122.917 158.708 135.042 170.833 150 170.833C164.958 170.833 177.083 158.708 177.083 143.75C177.083 128.792 164.958 116.667 150 116.667ZM118.75 143.75C118.75 126.491 132.741 112.5 150 112.5C167.259 112.5 181.25 126.491 181.25 143.75C181.25 161.009 167.259 175 150 175C132.741 175 118.75 161.009 118.75 143.75Z" fill="#F9B300"/>
<path fill-rule="evenodd" clip-rule="evenodd" d="M150 120.834C137.344 120.834 127.083 131.094 127.083 143.75C127.083 144.901 126.151 145.834 125 145.834C123.849 145.834 122.917 144.901 122.917 143.75C122.917 128.793 135.042 116.667 150 116.667C151.151 116.667 152.083 117.6 152.083 118.75C152.083 119.901 151.151 120.834 150 120.834Z" fill="#FFE792"/>
<path fill-rule="evenodd" clip-rule="evenodd" d="M134.991 123.739C135.688 124.655 135.511 125.962 134.595 126.658C133.99 127.119 133.417 127.689 132.896 128.361C132.191 129.27 130.883 129.435 129.973 128.73C129.064 128.025 128.899 126.716 129.604 125.807C130.33 124.871 131.156 124.039 132.072 123.342C132.988 122.646 134.295 122.823 134.991 123.739Z" fill="#FFF8DF"/>
<path d="M170.833 139.583C170.833 140.734 169.901 141.667 168.75 141.667C167.599 141.667 166.667 140.734 166.667 139.583C166.667 138.433 167.599 137.5 168.75 137.5C169.901 137.5 170.833 138.433 170.833 139.583ZM175 147.917C175 149.067 174.067 150 172.917 150C171.766 150 170.833 149.067 170.833 147.917C170.833 146.766 171.766 145.833 172.917 145.833C174.067 145.833 175 146.766 175 147.917ZM170.833 156.25C170.833 157.401 169.901 158.333 168.75 158.333C167.599 158.333 166.667 157.401 166.667 156.25C166.667 155.099 167.599 154.167 168.75 154.167C169.901 154.167 170.833 155.099 170.833 156.25ZM160.417 162.5C160.417 163.651 159.484 164.583 158.333 164.583C157.183 164.583 156.25 163.651 156.25 162.5C156.25 161.349 157.183 160.417 158.333 160.417C159.484 160.417 160.417 161.349 160.417 162.5ZM154.167 166.667C154.167 167.817 153.234 168.75 152.083 168.75C150.933 168.75 150 167.817 150 166.667C150 165.516 150.933 164.583 152.083 164.583C153.234 164.583 154.167 165.516 154.167 166.667ZM168.75 150C168.75 151.151 167.817 152.083 166.667 152.083C165.516 152.083 164.583 151.151 164.583 150C164.583 148.849 165.516 147.917 166.667 147.917C167.817 147.917 168.75 148.849 168.75 150ZM164.583 143.75C164.583 144.901 163.651 145.833 162.5 145.833C161.349 145.833 160.417 144.901 160.417 143.75C160.417 142.599 161.349 141.667 162.5 141.667C163.651 141.667 164.583 142.599 164.583 143.75ZM164.583 156.25C164.583 157.401 163.651 158.333 162.5 158.333C161.349 158.333 160.417 157.401 160.417 156.25C160.417 155.099 161.349 154.167 162.5 154.167C163.651 154.167 164.583 155.099 164.583 156.25Z" fill="#F9B300"/>
</svg>
